<svg width="1440" height="1024" viewBox="0 0 1440 1024" fill="none" xmlns="http://www.w3.org/2000/svg">
<path d="M1475.06 920.531H-36V921.287H1475.06V920.531Z" fill="#EBEBEB"/>
<path d="M1323.65 969.156H1223.55V969.912H1323.65V969.156Z" fill="#EBEBEB"/>
<path fill-rule="evenodd" clip-rule="evenodd" d="M191.227 137.108C191.181 139.486 188.67 143.443 184.633 147.922C181.71 151.166 178.307 154.302 175.454 156.415L175.277 156.546L175.394 157.071C176.088 160.118 176.994 163.43 176.652 166.77C175.821 174.877 169.493 184.023 161.131 188.516C158.081 190.231 154.615 191.288 151.058 191.748L150.719 191.79C148.068 192.103 145.531 192.051 143.98 191.731C137.962 190.488 132.866 186.272 129.786 180.17C129.775 180.15 129.767 180.129 129.761 180.107C129.356 180.339 128.81 180.598 128.561 180.683L127.878 180.914C120.52 183.394 113.226 185.469 110.246 184.174C109.112 183.681 108.724 182.733 109.198 181.459C109.659 180.221 110.938 178.627 113.083 176.642L113.2 176.533C115.233 174.666 119.746 171.255 126.74 166.299L126.742 166.208C127.083 151.524 138.466 140.329 152.774 141.243C157.15 141.523 160.635 143.081 162.376 144.038L163.141 143.626C170.321 139.779 176.082 137.075 180.478 135.457C187.706 132.795 191.281 134.039 191.227 137.108ZM180.713 137.034C172.631 140.01 159.856 146.704 142.071 157.472L141.53 157.8C127.681 166.201 118.511 172.583 113.661 177.037L113.423 177.258L113.196 177.471C109.556 180.918 108.911 182.848 110.518 183.546C113.269 184.742 120.656 182.727 127.89 180.349L128.561 180.127C129.206 179.913 129.634 179.79 129.899 179.733C129.91 179.725 129.923 179.718 129.936 179.711C130.027 179.665 130.128 179.663 130.215 179.698C130.234 179.701 130.247 179.707 130.253 179.715C130.312 179.747 130.362 179.797 130.395 179.862C133.385 185.785 138.313 189.394 144.118 190.594C145.625 190.905 148.167 190.95 150.812 190.623L150.971 190.602C154.445 190.153 157.829 189.588 160.803 187.917C168.974 183.525 175.166 174.577 175.973 166.7C176.318 163.334 175.877 160.029 174.707 156.954C174.611 157.021 174.515 157.088 174.42 157.153C174.24 157.276 174.308 157.077 174.621 156.556C174.638 156.489 174.675 156.427 174.729 156.38L174.826 156.227C174.859 156.173 174.895 156.118 174.932 156.06L175.337 155.718C179.149 152.487 182.079 149.735 184.127 147.464L184.361 147.203C188.149 142.955 190.503 139.203 190.542 137.095C190.585 134.783 187.541 134.52 180.713 137.034ZM146.441 180.286C147.356 183.091 145.971 184.895 143.532 184.988C141.279 185.074 139.227 183.651 139.331 181.63C139.422 179.882 140.616 178.014 142.086 177.328C143.864 176.498 145.532 177.505 146.441 180.286ZM142.446 178.103C141.27 178.652 140.258 180.235 140.184 181.674C140.11 183.107 141.69 184.203 143.5 184.134C145.392 184.061 146.362 182.797 145.63 180.552C144.867 178.215 143.706 177.515 142.446 178.103ZM165.06 174.571C166.228 176.784 165.922 178.957 164.125 179.931L164.075 179.958L164.049 179.984C161.64 182.375 158.63 182.665 156.667 180.932L156.6 180.871C154.339 178.796 154.877 175.23 158.475 172.435C160.79 170.636 163.619 171.842 165.06 174.571ZM158.923 173.014C155.657 175.552 155.198 178.591 157.094 180.331C158.453 181.579 160.462 181.648 162.339 180.437L162.375 180.412L162.361 180.409C162.232 180.375 162.127 180.27 162.098 180.133L162.092 180.098C162.068 179.897 162.212 179.715 162.412 179.691C162.871 179.637 163.269 179.526 163.607 179.367L163.653 179.344L163.709 179.286C163.929 179.054 164.144 178.802 164.352 178.528L164.421 178.436C164.5 178.331 164.623 178.28 164.744 178.29L164.754 178.291L164.759 178.282C165.197 177.414 165.093 176.239 164.451 174.988L164.413 174.914C163.16 172.541 160.818 171.542 158.923 173.014ZM180.673 146.715C180.485 147.384 179.913 148.302 179.036 149.39C177.507 151.285 175.211 153.492 173.204 155.001L173.649 154.51C173.645 154.506 173.641 154.501 173.638 154.495L173.484 154.212C172.48 152.375 171.361 150.563 169.552 149.085C164.871 151.019 159.504 153.663 154.614 156.427L153.011 157.335C141.207 164.035 134.997 168.046 128.356 172.978C128.607 174.109 128.923 175.213 129.301 176.282C129.361 176.45 128.585 177.078 128.443 177C127.118 177.89 125.044 178.536 123.863 178.57C122.712 178.602 122.047 178.135 122.389 177.204C122.676 176.426 123.755 175.315 125.698 173.826L125.92 173.658L126.367 173.321C133.679 167.835 140.917 163.384 154.278 155.831L154.838 155.517C164.001 150.391 174.613 145.773 179.473 145.347C180.473 145.26 180.926 145.814 180.673 146.715ZM127.467 173.641L125.935 174.8C124.569 175.838 123.583 176.606 123.051 177.099L123.012 177.135C122.362 177.746 123.098 177.907 123.843 177.886C124.973 177.854 126.702 176.996 128.167 176.215C127.896 175.375 127.663 174.516 127.467 173.641ZM151.43 169.928C151.612 169.974 151.723 170.16 151.677 170.343C151.63 170.526 151.445 170.637 151.262 170.591C150.344 170.357 149.802 170.447 149.626 170.694C149.509 170.859 149.574 171.139 149.792 171.318C149.963 171.458 150.19 171.524 150.346 171.49C150.482 171.461 150.558 171.356 150.558 171.093C150.558 170.904 150.711 170.751 150.899 170.751C151.088 170.751 151.24 170.904 151.24 171.093C151.24 171.664 150.955 172.057 150.491 172.159C150.118 172.24 149.683 172.112 149.36 171.847C148.883 171.456 148.727 170.781 149.07 170.298C149.446 169.768 150.269 169.632 151.43 169.928ZM136.437 168.672C136.964 168.83 137.19 169.235 137.262 169.843L137.269 169.909L137.278 170.009C137.279 170.025 137.28 170.042 137.281 170.061L137.299 170.408L137.304 170.486C137.307 170.52 137.31 170.548 137.314 170.574L137.323 170.626L137.328 170.649L137.338 170.657C137.443 170.761 137.471 170.923 137.403 171.056L137.386 171.087C137.283 171.246 137.072 171.291 136.914 171.189C136.696 171.048 136.646 170.903 136.62 170.487L136.598 170.08C136.596 170.043 136.593 170.011 136.589 169.975C136.551 169.577 136.454 169.391 136.241 169.327C135.645 169.148 135.303 169.331 135.195 169.73C135.098 170.086 135.238 170.46 135.483 170.564L135.544 170.587C135.704 170.656 135.789 170.836 135.735 171.005C135.678 171.185 135.486 171.285 135.306 171.227C134.656 171.02 134.348 170.246 134.536 169.551C134.747 168.775 135.479 168.384 136.437 168.672ZM161.061 163.435C162.007 164.767 161.831 166.461 160.314 167.227C160.146 167.312 159.941 167.245 159.856 167.076C159.771 166.907 159.839 166.702 160.007 166.617C161.105 166.062 161.23 164.853 160.505 163.831C159.801 162.839 158.82 162.73 158.146 163.802C157.432 164.939 157.484 165.606 157.998 165.907C158.407 166.145 159.064 166.095 159.245 165.9L159.262 165.879C159.372 165.725 159.585 165.689 159.738 165.798C159.892 165.908 159.928 166.122 159.818 166.275C159.439 166.809 158.356 166.908 157.654 166.498C156.756 165.973 156.67 164.868 157.569 163.438C158.531 161.907 160.1 162.081 161.061 163.435ZM146.911 161.474C147.088 161.474 147.234 161.61 147.25 161.783L147.252 161.816C147.252 161.876 147.308 161.943 147.508 162.091L147.698 162.227C147.904 162.378 148.004 162.472 148.098 162.621C148.313 162.962 148.435 163.309 148.435 163.717C148.435 164.762 146.868 166.184 145.158 166.817C143.107 167.575 141.427 167.013 140.97 164.904C140.93 164.72 141.047 164.537 141.231 164.497C141.415 164.457 141.597 164.574 141.637 164.759C141.992 166.395 143.217 166.805 144.921 166.175C146.393 165.631 147.752 164.397 147.752 163.717C147.752 163.454 147.673 163.227 147.521 162.986L147.5 162.957C147.466 162.914 147.411 162.866 147.314 162.793L147.088 162.631C146.714 162.354 146.569 162.168 146.569 161.816C146.569 161.627 146.722 161.474 146.911 161.474ZM148.513 142.517L148.297 142.542C136.651 143.945 127.914 153.28 127.437 165.806L128.687 164.925C132.274 162.402 136.437 159.52 141.177 156.279L142.1 155.72C144.858 154.053 147.494 152.484 150.011 151.012C149.965 150.932 149.952 150.833 149.983 150.737C150.159 150.199 150.322 149.838 150.62 149.475C151.552 148.342 152.83 147.788 153.735 148.5C153.824 148.57 153.869 148.675 153.865 148.781L154.669 148.321C157.201 146.877 159.597 145.543 161.858 144.318L160.975 144.066C159.665 143.696 158.036 143.258 156.413 142.921C156.428 144.003 155.619 144.867 154.276 145.462C153.134 145.967 151.646 146.239 150.588 146.176C148.609 146.058 147.495 144.318 148.513 142.517ZM168.943 157.37C169.778 159.657 169.089 161.736 167.004 161.723C164.032 161.703 161.131 159.103 161.6 156.774C161.809 155.735 162.588 154.816 163.944 154.358C166.109 153.625 168.093 155.043 168.943 157.37ZM164.162 155.006C163.042 155.385 162.431 156.106 162.269 156.91C161.897 158.758 164.423 161.022 167.008 161.039C168.489 161.048 168.998 159.512 168.302 157.606C167.565 155.588 165.918 154.412 164.162 155.006ZM139.065 146.909L139.09 146.944L139.254 147.206C139.334 147.339 139.407 147.469 139.475 147.61C140.231 149.159 140.212 151.189 138.932 154.007C138.353 155.284 136.876 157 135.587 158.024C133.941 159.331 132.712 159.628 131.245 159.467L130.809 159.415L130.756 159.41C130.727 159.408 130.709 159.408 130.688 159.409L130.658 159.41C130.636 159.411 130.628 159.41 130.626 159.407V159.405L130.616 159.423C130.517 159.565 130.324 159.611 130.17 159.525C130.005 159.434 129.946 159.225 130.038 159.06C130.16 158.839 130.365 158.739 130.626 158.727C130.695 158.724 130.768 158.726 130.855 158.733L130.957 158.743L131.239 158.777C132.575 158.94 133.638 158.699 135.163 157.488C136.374 156.526 137.782 154.89 138.311 153.724C139.508 151.087 139.526 149.27 138.862 147.911C138.818 147.82 138.772 147.734 138.722 147.648L138.65 147.528L138.507 147.301C138.407 147.141 138.455 146.93 138.615 146.83C138.765 146.736 138.959 146.772 139.065 146.909ZM179.533 146.029C177.351 146.22 173.931 147.3 169.987 148.907L170.103 149.009C171.2 149.995 173.414 152.335 174.107 154.004L174.798 153.237C176.501 151.338 177.737 149.913 178.505 148.96L178.66 148.765C179.395 147.831 179.869 147.05 180.016 146.53L180.036 146.451C180.127 146.075 180.022 145.986 179.533 146.029ZM146.852 147.14C147.702 147.551 148.046 148.468 147.488 149.298C147.382 149.455 147.17 149.496 147.014 149.39C146.857 149.285 146.816 149.072 146.922 148.916C147.229 148.459 147.055 147.998 146.555 147.756C146.028 147.5 145.451 147.647 145.153 148.205C144.878 148.718 144.859 149.413 145.078 149.869C145.271 150.269 145.551 150.345 145.978 150.023C146.129 149.909 146.343 149.939 146.457 150.091C146.57 150.241 146.54 150.456 146.389 150.569C145.61 151.157 144.839 150.946 144.464 150.166C144.149 149.512 144.174 148.587 144.551 147.881C145.032 146.982 146.012 146.733 146.852 147.14ZM151.146 149.91C150.987 150.104 150.874 150.308 150.768 150.57C151.648 150.058 152.512 149.558 153.362 149.069L153.337 149.055L153.313 149.038C152.792 148.628 151.874 149.026 151.146 149.91ZM149.691 142.413L149.392 142.434L149.372 142.459C148.193 143.953 148.647 145.166 150.258 145.338C151.415 145.462 154.487 144.602 154.848 144.3C155.199 144.006 155.643 143.329 155.711 142.781C154.668 142.585 153.649 142.441 152.739 142.394C151.809 142.346 150.892 142.347 149.991 142.395L149.691 142.413Z" fill="#DADADA"/>
<path d="M180.665 137.131C187.938 134.46 187.771 135.253 180.902 137.775C172.769 140.761 142.07 159.472 142.07 159.472C128.136 167.901 127.094 166.6 140.6 158.398L141.432 157.893C141.589 157.798 156.966 148.101 167.954 142.913C169.19 142.329 179.837 137.435 180.665 137.131Z" fill="white"/>
<path d="M964.985 977.383H938.723V978.138H964.985V977.383Z" fill="#EBEBEB"/>
<path d="M1220.53 941.117H1162.54V941.873H1220.53V941.117Z" fill="#EBEBEB"/>
<path d="M253.064 946.188H122.539V946.943H253.064V946.188Z" fill="#EBEBEB"/>
<path d="M299.122 946.188H279.992V946.943H299.122V946.188Z" fill="#EBEBEB"/>
<path d="M644.428 958.945H361.316V959.701H644.428V958.945Z" fill="#EBEBEB"/>
<path d="M1162.39 97.4272L1178.53 100.087L1162.39 102.746L1159.7 118.884L1157.04 102.746L1140.9 100.087L1157.04 97.4272L1159.7 81.2891L1162.39 97.4272Z" fill="#EBEBEB"/>
<path d="M1163.48 100.086L1173.03 113.384L1159.7 103.864L1146.4 113.384L1155.95 100.086L1146.4 86.7891L1159.7 96.3389L1173.03 86.7891L1163.48 100.086Z" fill="#EBEBEB"/>
<path d="M1163.44 100.091C1163.44 101.085 1163.05 102.038 1162.35 102.741C1161.64 103.444 1160.69 103.839 1159.7 103.839C1158.7 103.839 1157.75 103.444 1157.05 102.741C1156.34 102.038 1155.95 101.085 1155.95 100.091C1155.95 99.0973 1156.34 98.1441 1157.05 97.4413C1157.75 96.7386 1158.7 96.3438 1159.7 96.3438C1160.69 96.3438 1161.64 96.7386 1162.35 97.4413C1163.05 98.1441 1163.44 99.0973 1163.44 100.091Z" fill="#E0E0E0"/>
<path d="M1275.54 721.918L1291.7 724.578L1275.54 727.237L1272.88 743.375L1270.22 727.237L1254.08 724.578L1270.22 721.918L1272.88 705.75L1275.54 721.918Z" fill="#EBEBEB"/>
<path d="M1276.65 724.579L1286.17 737.876L1272.88 728.326L1259.58 737.876L1269.13 724.579L1259.58 711.281L1272.88 720.801L1286.17 711.281L1276.65 724.579Z" fill="#EBEBEB"/>
<path d="M1276.62 724.576C1276.62 725.317 1276.4 726.041 1275.99 726.657C1275.58 727.274 1275 727.754 1274.31 728.038C1273.63 728.321 1272.87 728.396 1272.15 728.251C1271.42 728.106 1270.75 727.749 1270.23 727.225C1269.7 726.701 1269.35 726.034 1269.2 725.307C1269.06 724.58 1269.13 723.826 1269.41 723.141C1269.7 722.457 1270.18 721.871 1270.79 721.46C1271.41 721.048 1272.14 720.828 1272.88 720.828C1273.87 720.828 1274.82 721.223 1275.53 721.926C1276.23 722.629 1276.62 723.582 1276.62 724.576Z" fill="#E0E0E0"/>
<path d="M380.78 954.59L396.918 957.25L380.78 959.909L378.121 976.047L375.461 959.909L359.293 957.25L375.461 954.59L378.121 938.422L380.78 954.59Z" fill="#EBEBEB"/>
<path d="M381.869 957.25L391.419 970.548L378.121 960.998L364.824 970.548L374.344 957.25L364.824 943.953L378.121 953.473L391.419 943.953L381.869 957.25Z" fill="#EBEBEB"/>
<path d="M381.839 957.255C381.839 957.998 381.618 958.724 381.205 959.34C380.792 959.957 380.205 960.438 379.518 960.72C378.832 961.003 378.077 961.075 377.349 960.928C376.621 960.781 375.954 960.421 375.431 959.894C374.908 959.367 374.553 958.697 374.412 957.968C374.271 957.239 374.35 956.484 374.638 955.8C374.926 955.116 375.411 954.533 376.031 954.125C376.652 953.717 377.379 953.502 378.121 953.508C379.11 953.516 380.055 953.914 380.752 954.616C381.448 955.318 381.839 956.267 381.839 957.255Z" fill="#E0E0E0"/>
<path d="M958.699 30.7006L974.867 33.36L958.699 36.0195L956.04 52.1878L953.38 36.0195L937.242 33.36L953.38 30.7006L956.04 14.5625L958.699 30.7006Z" fill="#EBEBEB"/>
<path d="M959.817 33.3598L969.337 46.6571L956.04 37.1374L942.742 46.6571L952.292 33.3598L942.742 20.0625L956.04 29.6124L969.337 20.0625L959.817 33.3598Z" fill="#EBEBEB"/>
<path d="M959.788 33.3646C959.788 34.3585 959.393 35.3117 958.69 36.0144C957.987 36.7172 957.034 37.112 956.04 37.112C955.047 37.112 954.093 36.7172 953.391 36.0144C952.688 35.3117 952.293 34.3585 952.293 33.3646C952.293 32.3707 952.688 31.4176 953.391 30.7148C954.093 30.012 955.047 29.6172 956.04 29.6172C957.034 29.6172 957.987 30.012 958.69 30.7148C959.393 31.4176 959.788 32.3707 959.788 33.3646Z" fill="#E0E0E0"/>
<path d="M1085.5 309.677L1101.64 312.337L1085.5 314.996L1082.84 331.134L1080.18 314.996L1064.05 312.337L1080.18 309.677L1082.84 293.539L1085.5 309.677Z" fill="#EBEBEB"/>
<path d="M1086.6 312.336L1096.15 325.634L1082.85 316.114L1069.55 325.634L1079.1 312.336L1069.55 299.039L1082.85 308.589L1096.15 299.039L1086.6 312.336Z" fill="#EBEBEB"/>
<path d="M1086.59 312.333C1086.59 313.074 1086.37 313.799 1085.96 314.415C1085.55 315.032 1084.96 315.512 1084.28 315.796C1083.59 316.079 1082.84 316.153 1082.11 316.009C1081.39 315.864 1080.72 315.507 1080.2 314.983C1079.67 314.459 1079.31 313.791 1079.17 313.064C1079.03 312.337 1079.1 311.584 1079.38 310.899C1079.67 310.215 1080.15 309.629 1080.76 309.217C1081.38 308.806 1082.1 308.586 1082.85 308.586C1083.84 308.594 1084.79 308.991 1085.49 309.692C1086.19 310.393 1086.58 311.342 1086.59 312.333Z" fill="#E0E0E0"/>
<path d="M1083.6 923.739L1099.74 926.398L1083.6 929.058L1080.94 945.196L1078.28 929.058L1062.14 926.398L1078.28 923.739L1080.94 907.57L1083.6 923.739Z" fill="#EBEBEB"/>
<path d="M1084.69 926.399L1094.24 939.696L1080.94 930.146L1067.64 939.696L1077.16 926.399L1067.64 913.102L1080.94 922.621L1094.24 913.102L1084.69 926.399Z" fill="#EBEBEB"/>
<path d="M1084.69 926.396C1084.69 927.39 1084.3 928.343 1083.59 929.046C1082.89 929.748 1081.94 930.143 1080.94 930.143C1079.95 930.143 1079 929.748 1078.29 929.046C1077.59 928.343 1077.2 927.39 1077.2 926.396C1077.2 925.402 1077.59 924.449 1078.29 923.746C1079 923.043 1079.95 922.648 1080.94 922.648C1081.94 922.648 1082.89 923.043 1083.59 923.746C1084.3 924.449 1084.69 925.402 1084.69 926.396Z" fill="#E0E0E0"/>
<path d="M145.056 578.096L158.747 580.363L145.056 582.599L142.79 596.289L140.553 582.599L126.863 580.363L140.553 578.096L142.79 564.406L145.056 578.096Z" fill="#EBEBEB"/>
<path d="M145.992 580.366L154.061 591.639L142.788 583.54L131.516 591.639L139.615 580.366L131.516 569.094L142.788 577.163L154.061 569.094L145.992 580.366Z" fill="#EBEBEB"/>
<path d="M145.96 580.362C145.99 580.995 145.83 581.623 145.5 582.164C145.17 582.705 144.686 583.135 144.11 583.399C143.533 583.662 142.891 583.747 142.266 583.642C141.64 583.538 141.061 583.248 140.602 582.811C140.143 582.374 139.825 581.809 139.69 581.19C139.555 580.57 139.608 579.925 139.843 579.336C140.079 578.747 140.485 578.243 141.009 577.887C141.534 577.531 142.153 577.34 142.787 577.34C143.196 577.319 143.605 577.382 143.99 577.525C144.374 577.668 144.725 577.887 145.022 578.17C145.319 578.452 145.555 578.792 145.716 579.169C145.878 579.546 145.961 579.952 145.96 580.362Z" fill="#E0E0E0"/>
<path d="M1139.78 588.285L1153.47 590.551L1139.78 592.818L1137.55 606.508L1135.28 592.818L1121.59 590.551L1135.28 588.285L1137.55 574.625L1139.78 588.285Z" fill="#EBEBEB"/>
<path d="M1140.72 590.546L1148.82 601.818L1137.55 593.719L1126.27 601.818L1134.34 590.546L1126.27 579.273L1137.55 587.373L1148.82 579.273L1140.72 590.546Z" fill="#EBEBEB"/>
<path d="M1137.54 593.721C1139.3 593.721 1140.72 592.301 1140.72 590.548C1140.72 588.796 1139.3 587.375 1137.54 587.375C1135.79 587.375 1134.37 588.796 1134.37 590.548C1134.37 592.301 1135.79 593.721 1137.54 593.721Z" fill="#E0E0E0"/>
<path d="M1285.81 313.057L1299.5 315.294L1285.81 317.56L1283.54 331.25L1281.31 317.56L1267.62 315.294L1281.31 313.057L1283.54 299.367L1285.81 313.057Z" fill="#EBEBEB"/>
<path d="M1286.75 315.296L1294.82 326.568L1283.55 318.499L1272.27 326.568L1280.37 315.296L1272.27 304.023L1283.55 312.123L1294.82 304.023L1286.75 315.296Z" fill="#EBEBEB"/>
<path d="M1283.54 318.471C1285.3 318.471 1286.72 317.051 1286.72 315.298C1286.72 313.546 1285.3 312.125 1283.54 312.125C1281.79 312.125 1280.37 313.546 1280.37 315.298C1280.37 317.051 1281.79 318.471 1283.54 318.471Z" fill="#E0E0E0"/>
<path d="M334.662 39.5574L348.352 41.8239L334.662 44.0905L332.395 57.7505L330.159 44.0905L316.469 41.8239L330.159 39.5574L332.395 25.8672L334.662 39.5574Z" fill="#EBEBEB"/>
<path d="M335.597 41.8272L343.666 53.0996L332.394 45.0004L321.121 53.0996L329.22 41.8272L321.121 30.5547L332.394 38.6237L343.666 30.5547L335.597 41.8272Z" fill="#EBEBEB"/>
<path d="M332.396 44.9949C334.148 44.9949 335.569 43.5742 335.569 41.8217C335.569 40.0691 334.148 38.6484 332.396 38.6484C330.643 38.6484 329.223 40.0691 329.223 41.8217C329.223 43.5742 330.643 44.9949 332.396 44.9949Z" fill="#E0E0E0"/>
<path d="M422.181 665.347L435.841 667.614L422.181 669.85L419.915 683.541L417.678 669.85L403.988 667.614L417.678 665.347L419.915 651.688L422.181 665.347Z" fill="#EBEBEB"/>
<path d="M423.12 667.616L431.189 678.889L419.917 670.789L408.645 678.889L416.744 667.616L408.645 656.344L419.917 664.413L431.189 656.344L423.12 667.616Z" fill="#EBEBEB"/>
<path d="M419.915 670.784C421.668 670.784 423.089 669.363 423.089 667.611C423.089 665.858 421.668 664.438 419.915 664.438C418.163 664.438 416.742 665.858 416.742 667.611C416.742 669.363 418.163 670.784 419.915 670.784Z" fill="#E0E0E0"/>
<path d="M711.881 911.198L725.571 913.434L711.881 915.701L709.614 929.361L707.347 915.701L693.688 913.434L707.347 911.198L709.614 897.508L711.881 911.198Z" fill="#EBEBEB"/>
<path d="M712.82 913.429L720.889 924.701L709.616 916.632L698.344 924.701L706.443 913.429L698.344 902.156L709.616 910.255L720.889 902.156L712.82 913.429Z" fill="#EBEBEB"/>
<path d="M712.788 913.435C712.788 914.063 712.602 914.676 712.253 915.198C711.904 915.72 711.409 916.127 710.829 916.367C710.249 916.607 709.611 916.67 708.996 916.547C708.38 916.425 707.815 916.123 707.371 915.679C706.927 915.235 706.625 914.67 706.502 914.054C706.38 913.439 706.443 912.801 706.683 912.221C706.923 911.641 707.33 911.145 707.852 910.797C708.374 910.448 708.987 910.262 709.615 910.262C710.037 910.24 710.459 910.307 710.854 910.459C711.249 910.611 711.608 910.844 711.907 911.143C712.206 911.442 712.439 911.801 712.591 912.195C712.742 912.59 712.81 913.013 712.788 913.435Z" fill="#E0E0E0"/>
<path d="M853.802 276.55L867.493 278.786L853.802 281.053L851.536 294.743L849.3 281.053L835.609 278.786L849.3 276.55L851.536 262.859L853.802 276.55Z" fill="#EBEBEB"/>
<path d="M854.738 278.788L862.807 290.061L851.534 281.992L840.262 290.061L848.361 278.788L840.262 267.516L851.534 275.615L862.807 267.516L854.738 278.788Z" fill="#EBEBEB"/>
<path d="M854.706 278.787C854.706 279.414 854.52 280.028 854.171 280.55C853.822 281.071 853.327 281.478 852.747 281.718C852.167 281.958 851.529 282.021 850.914 281.899C850.298 281.776 849.733 281.474 849.289 281.03C848.845 280.587 848.543 280.021 848.42 279.406C848.298 278.79 848.361 278.152 848.601 277.572C848.841 276.992 849.248 276.497 849.77 276.148C850.291 275.799 850.905 275.613 851.533 275.613C851.955 275.592 852.377 275.659 852.772 275.811C853.167 275.962 853.525 276.195 853.825 276.495C854.124 276.794 854.357 277.152 854.508 277.547C854.66 277.942 854.728 278.364 854.706 278.787Z" fill="#E0E0E0"/>
<path d="M228.738 208.762L244.876 211.391L228.738 214.051L226.079 230.219L223.419 214.051L207.281 211.391L223.419 208.762L226.079 192.594L228.738 208.762Z" fill="#EBEBEB"/>
<path d="M229.826 211.391L239.376 224.719L226.079 215.169L212.781 224.719L222.301 211.391L212.781 198.094L226.079 207.644L239.376 198.094L229.826 211.391Z" fill="#EBEBEB"/>
<path d="M229.944 211.397C229.95 212.139 229.735 212.867 229.327 213.487C228.919 214.107 228.336 214.592 227.652 214.88C226.967 215.169 226.213 215.247 225.484 215.106C224.755 214.965 224.085 214.61 223.558 214.088C223.03 213.565 222.671 212.897 222.523 212.169C222.376 211.442 222.449 210.687 222.732 210C223.014 209.314 223.495 208.727 224.111 208.313C224.728 207.9 225.454 207.68 226.197 207.68C227.185 207.68 228.134 208.07 228.836 208.767C229.538 209.463 229.936 210.408 229.944 211.397Z" fill="#E0E0E0"/>
<path d="M611.246 4.13807L627.384 6.79754L611.246 9.45699L608.587 25.6253L605.927 9.45699L589.789 6.79754L605.927 4.13807L608.587 -12L611.246 4.13807Z" fill="#EBEBEB"/>
<path d="M612.334 6.7973L621.884 20.0946L608.586 10.5749L595.289 20.0946L604.839 6.7973L595.289 -6.5L608.586 3.04986L621.884 -6.5L612.334 6.7973Z" fill="#EBEBEB"/>
<path d="M612.335 6.79431C612.335 7.78819 611.94 8.74134 611.237 9.44412C610.534 10.1469 609.581 10.5417 608.587 10.5417C607.593 10.5417 606.64 10.1469 605.937 9.44412C605.235 8.74134 604.84 7.78819 604.84 6.79431C604.84 5.80043 605.235 4.84725 605.937 4.14447C606.64 3.4417 607.593 3.04688 608.587 3.04688C609.581 3.04688 610.534 3.4417 611.237 4.14447C611.94 4.84725 612.335 5.80043 612.335 6.79431Z" fill="#E0E0E0"/>
<path d="M508.159 341.435L524.297 344.094L508.159 346.754L505.5 362.892L502.81 346.754L486.672 344.094L502.81 341.435L505.5 325.297L508.159 341.435Z" fill="#EBEBEB"/>
<path d="M509.248 344.094L518.768 357.391L505.5 347.872L492.203 357.391L501.723 344.094L492.203 330.797L505.5 340.347L518.768 330.797L509.248 344.094Z" fill="#EBEBEB"/>
<path d="M509.221 344.099C509.221 344.842 509.001 345.567 508.588 346.184C508.175 346.801 507.587 347.281 506.901 347.564C506.214 347.847 505.459 347.919 504.732 347.772C504.004 347.625 503.336 347.265 502.813 346.738C502.291 346.211 501.936 345.54 501.795 344.811C501.654 344.083 501.732 343.328 502.021 342.644C502.309 341.96 502.794 341.377 503.414 340.969C504.034 340.56 504.762 340.346 505.504 340.352C505.995 340.352 506.481 340.449 506.934 340.637C507.387 340.826 507.798 341.103 508.143 341.451C508.489 341.799 508.762 342.213 508.947 342.667C509.132 343.122 509.225 343.608 509.221 344.099Z" fill="#E0E0E0"/>
<path d="M259.199 851.927L275.337 854.587L259.199 857.246L256.54 873.384L253.88 857.246L237.742 854.587L253.88 851.927L256.54 835.789L259.199 851.927Z" fill="#EBEBEB"/>
<path d="M260.287 854.594L269.837 867.892L256.539 858.372L243.242 867.892L252.762 854.594L243.242 841.297L256.539 850.847L269.837 841.297L260.287 854.594Z" fill="#EBEBEB"/>
<path d="M260.167 854.591C260.167 855.332 259.947 856.057 259.535 856.673C259.123 857.289 258.538 857.77 257.853 858.053C257.169 858.337 256.415 858.411 255.688 858.267C254.961 858.122 254.294 857.765 253.769 857.241C253.245 856.717 252.888 856.049 252.744 855.322C252.599 854.595 252.674 853.842 252.957 853.157C253.241 852.472 253.721 851.887 254.337 851.475C254.954 851.064 255.678 850.844 256.419 850.844C257.413 850.844 258.366 851.239 259.069 851.941C259.772 852.644 260.167 853.597 260.167 854.591Z" fill="#E0E0E0"/>
<path d="M911.554 651.654L927.692 654.313L911.554 656.973L908.894 673.111L906.235 656.973L890.066 654.313L906.235 651.654L908.894 635.516L911.554 651.654Z" fill="#EBEBEB"/>
<path d="M912.642 654.313L922.192 667.61L908.895 658.06L895.598 667.61L905.117 654.313L895.598 641.016L908.895 650.535L922.192 641.016L912.642 654.313Z" fill="#EBEBEB"/>
<path d="M912.639 654.318C912.639 655.312 912.244 656.265 911.542 656.967C910.839 657.67 909.886 658.065 908.892 658.065C907.898 658.065 906.945 657.67 906.242 656.967C905.539 656.265 905.145 655.312 905.145 654.318C905.145 653.324 905.539 652.371 906.242 651.668C906.945 650.965 907.898 650.57 908.892 650.57C909.886 650.57 910.839 650.965 911.542 651.668C912.244 652.371 912.639 653.324 912.639 654.318Z" fill="#E0E0E0"/>
<path d="M521.887 108.36C526.438 80.319 507.397 53.8979 479.356 49.3463C451.316 44.7947 424.895 63.8362 420.343 91.8767C415.791 119.917 434.833 146.338 462.873 150.89C490.914 155.441 517.335 136.4 521.887 108.36Z" fill="#F5F5F5"/>
<path d="M1285.02 482.578C1291.54 454.93 1274.42 427.227 1246.77 420.701C1219.13 414.176 1191.42 431.299 1184.9 458.947C1178.37 486.595 1195.5 514.298 1223.14 520.823C1250.79 527.349 1278.49 510.226 1285.02 482.578Z" fill="#F5F5F5"/>
<path d="M819.378 1035.71C847.785 1035.71 870.814 1012.68 870.814 984.272C870.814 955.865 847.785 932.836 819.378 932.836C790.97 932.836 767.941 955.865 767.941 984.272C767.941 1012.68 790.97 1035.71 819.378 1035.71Z" fill="#F5F5F5"/>
<path d="M1070.56 140.859C1074.3 125.021 1064.49 109.151 1048.65 105.413C1032.81 101.675 1016.94 111.484 1013.21 127.322C1009.47 143.161 1019.28 159.03 1035.12 162.769C1050.95 166.507 1066.82 156.698 1070.56 140.859Z" fill="#F5F5F5"/>
<path d="M703.844 746.791C720.118 746.791 733.31 733.598 733.31 717.325C733.31 701.052 720.118 687.859 703.844 687.859C687.571 687.859 674.379 701.052 674.379 717.325C674.379 733.598 687.571 746.791 703.844 746.791Z" fill="#F5F5F5"/>
<path d="M289.768 637.663C301.275 626.156 301.275 607.5 289.768 595.993C278.261 584.486 259.604 584.486 248.097 595.993C236.59 607.5 236.59 626.156 248.097 637.663C259.604 649.17 278.261 649.17 289.768 637.663Z" fill="#F5F5F5"/>
<path fill-rule="evenodd" clip-rule="evenodd" d="M1475 588.466C1474.87 594.943 1468.03 605.725 1457.04 617.926C1449.07 626.763 1439.8 635.306 1432.03 641.063L1431.55 641.418L1431.87 642.849C1433.76 651.148 1436.22 660.171 1435.29 669.27C1433.03 691.353 1415.79 716.269 1393.01 728.51C1384.7 733.181 1375.26 736.061 1365.57 737.315L1364.65 737.429C1357.43 738.281 1350.51 738.14 1346.29 737.267C1329.9 733.88 1316.02 722.396 1307.62 705.774C1307.59 705.719 1307.57 705.661 1307.56 705.603C1306.45 706.235 1304.96 706.94 1304.29 707.171L1302.43 707.801C1282.38 714.557 1262.51 720.208 1254.39 716.681C1251.3 715.338 1250.25 712.755 1251.54 709.286C1252.8 705.914 1256.28 701.569 1262.12 696.162L1262.44 695.866C1267.98 690.78 1280.27 681.487 1299.33 667.987L1299.33 667.739C1300.26 627.737 1331.27 597.242 1370.25 599.731C1382.17 600.493 1391.66 604.738 1396.4 607.345L1398.49 606.223C1418.05 595.743 1433.74 588.377 1445.72 583.968C1465.41 576.717 1475.15 580.107 1475 588.466ZM1446.36 588.265C1424.34 596.373 1389.54 614.608 1341.09 643.941L1339.62 644.833C1301.89 667.719 1276.91 685.105 1263.7 697.239L1263.05 697.841L1262.43 698.422C1252.51 707.81 1250.76 713.069 1255.13 714.971C1262.63 718.228 1282.75 712.738 1302.46 706.261L1304.29 705.657C1306.04 705.073 1307.21 704.738 1307.93 704.584C1307.96 704.561 1308 704.541 1308.03 704.522C1308.28 704.398 1308.56 704.393 1308.79 704.487C1308.84 704.497 1308.88 704.513 1308.9 704.535C1309.06 704.622 1309.19 704.758 1309.28 704.933C1317.43 721.069 1330.85 730.902 1346.67 734.169C1350.77 735.016 1357.7 735.141 1364.9 734.248L1365.34 734.193C1374.8 732.968 1384.02 731.43 1392.12 726.877C1414.38 714.914 1431.24 690.537 1433.44 669.079C1434.38 659.909 1433.18 650.907 1430 642.53C1429.73 642.714 1429.47 642.894 1429.21 643.072C1428.72 643.406 1428.91 642.864 1429.76 641.447C1429.81 641.262 1429.91 641.093 1430.05 640.967L1430.32 640.549C1430.41 640.403 1430.51 640.252 1430.61 640.094L1431.71 639.163C1442.1 630.36 1450.08 622.865 1455.66 616.676L1456.29 615.966C1466.61 604.395 1473.03 594.173 1473.13 588.432C1473.25 582.133 1464.96 581.416 1446.36 588.265ZM1352.99 706.09C1355.49 713.73 1351.71 718.645 1345.07 718.899C1338.93 719.133 1333.34 715.257 1333.63 709.749C1333.87 704.989 1337.13 699.9 1341.13 698.032C1345.97 695.771 1350.52 698.513 1352.99 706.09ZM1342.11 700.143C1338.91 701.638 1336.15 705.951 1335.95 709.87C1335.75 713.774 1340.05 716.759 1344.98 716.571C1350.14 716.374 1352.78 712.929 1350.78 706.814C1348.71 700.448 1345.54 698.541 1342.11 700.143ZM1403.71 690.521C1406.9 696.548 1406.06 702.47 1401.17 705.123L1401.03 705.196L1400.96 705.267C1394.4 711.779 1386.2 712.57 1380.85 707.849L1380.67 707.684C1374.51 702.03 1375.98 692.317 1385.78 684.702C1392.08 679.802 1399.79 683.088 1403.71 690.521ZM1387 686.28C1378.1 693.193 1376.85 701.471 1382.01 706.212C1385.72 709.612 1391.19 709.8 1396.3 706.5L1396.4 706.433L1396.36 706.426C1396.01 706.332 1395.73 706.046 1395.65 705.673L1395.63 705.578C1395.56 705.031 1395.96 704.535 1396.5 704.47C1397.75 704.321 1398.84 704.019 1399.76 703.586L1399.88 703.524L1400.03 703.366C1400.63 702.734 1401.22 702.046 1401.79 701.301L1401.98 701.051C1402.19 700.765 1402.52 700.626 1402.86 700.653L1402.88 700.655L1402.89 700.631C1404.09 698.267 1403.8 695.065 1402.06 691.656L1401.95 691.455C1398.54 684.991 1392.16 682.27 1387 686.28ZM1446.25 614.637C1445.73 616.46 1444.18 618.961 1441.79 621.924C1437.62 627.088 1431.37 633.098 1425.9 637.208L1427.11 635.871C1427.1 635.861 1427.09 635.847 1427.08 635.831L1426.66 635.06C1423.93 630.055 1420.88 625.119 1415.95 621.094C1403.2 626.363 1388.58 633.564 1375.26 641.094L1370.89 643.568C1338.74 661.82 1321.82 672.747 1303.73 686.181C1304.41 689.262 1305.27 692.269 1306.3 695.182C1306.47 695.639 1304.35 697.35 1303.97 697.139C1300.36 699.562 1294.71 701.322 1291.49 701.413C1288.35 701.503 1286.54 700.231 1287.47 697.695C1288.25 695.573 1291.2 692.547 1296.49 688.492L1297.09 688.033L1298.31 687.115C1318.23 672.172 1337.95 660.046 1374.34 639.471L1375.87 638.615C1400.83 624.652 1429.74 612.073 1442.98 610.912C1445.7 610.673 1446.94 612.182 1446.25 614.637ZM1301.31 687.988L1297.13 691.144C1293.41 693.972 1290.73 696.064 1289.28 697.406L1289.17 697.506C1287.4 699.169 1289.4 699.608 1291.44 699.551C1294.51 699.464 1299.22 697.126 1303.21 694.999C1302.48 692.71 1301.84 690.37 1301.31 687.988ZM1366.58 677.872C1367.08 677.998 1367.38 678.505 1367.26 679.004C1367.13 679.503 1366.62 679.805 1366.13 679.678C1363.63 679.041 1362.15 679.286 1361.67 679.961C1361.35 680.408 1361.53 681.171 1362.12 681.659C1362.59 682.04 1363.21 682.221 1363.63 682.129C1364 682.048 1364.21 681.762 1364.21 681.047C1364.21 680.532 1364.63 680.115 1365.14 680.115C1365.65 680.115 1366.07 680.532 1366.07 681.047C1366.07 682.602 1365.29 683.673 1364.03 683.949C1363.01 684.171 1361.83 683.822 1360.95 683.101C1359.65 682.035 1359.22 680.196 1360.16 678.88C1361.18 677.438 1363.42 677.068 1366.58 677.872ZM1325.74 674.451C1327.18 674.882 1327.79 675.985 1327.99 677.64L1328.01 677.82L1328.03 678.092C1328.04 678.138 1328.04 678.184 1328.04 678.234L1328.09 679.18L1328.11 679.393C1328.11 679.487 1328.12 679.563 1328.13 679.631L1328.16 679.773L1328.17 679.836L1328.2 679.859C1328.48 680.141 1328.56 680.582 1328.37 680.947L1328.33 681.029C1328.05 681.462 1327.47 681.586 1327.04 681.307C1326.45 680.924 1326.31 680.529 1326.24 679.396L1326.18 678.286C1326.17 678.186 1326.17 678.099 1326.16 678.001C1326.05 676.916 1325.79 676.41 1325.21 676.236C1323.59 675.749 1322.65 676.246 1322.36 677.334C1322.1 678.304 1322.48 679.322 1323.14 679.605L1323.31 679.668C1323.75 679.855 1323.98 680.346 1323.83 680.808C1323.67 681.298 1323.15 681.568 1322.66 681.412C1320.89 680.847 1320.05 678.739 1320.56 676.845C1321.14 674.732 1323.13 673.667 1325.74 674.451ZM1392.82 660.185C1395.4 663.812 1394.92 668.428 1390.79 670.516C1390.33 670.748 1389.77 670.563 1389.54 670.104C1389.31 669.644 1389.49 669.084 1389.95 668.853C1392.94 667.34 1393.28 664.048 1391.31 661.265C1389.39 658.562 1386.72 658.265 1384.88 661.185C1382.94 664.282 1383.08 666.1 1384.48 666.918C1385.59 667.568 1387.38 667.432 1387.87 666.9L1387.92 666.842C1388.22 666.423 1388.8 666.325 1389.22 666.623C1389.64 666.922 1389.73 667.504 1389.44 667.923C1388.4 669.377 1385.45 669.645 1383.54 668.528C1381.09 667.098 1380.86 664.088 1383.31 660.193C1385.93 656.022 1390.2 656.497 1392.82 660.185ZM1354.27 654.843C1354.76 654.843 1355.15 655.213 1355.2 655.685L1355.2 655.775C1355.2 655.939 1355.36 656.122 1355.9 656.523L1356.42 656.894C1356.98 657.305 1357.25 657.561 1357.51 657.967C1358.09 658.896 1358.43 659.841 1358.43 660.954C1358.43 663.801 1354.16 667.674 1349.5 669.397C1343.91 671.463 1339.34 669.931 1338.09 664.187C1337.98 663.684 1338.3 663.188 1338.8 663.079C1339.3 662.97 1339.8 663.289 1339.91 663.792C1340.87 668.249 1344.21 669.366 1348.85 667.649C1352.86 666.166 1356.57 662.807 1356.57 660.954C1356.57 660.236 1356.35 659.617 1355.94 658.963L1355.88 658.884C1355.79 658.764 1355.64 658.634 1355.37 658.436L1354.76 657.994C1353.74 657.241 1353.34 656.732 1353.34 655.775C1353.34 655.26 1353.76 654.843 1354.27 654.843ZM1358.64 603.203L1358.05 603.269C1326.32 607.093 1302.52 632.521 1301.23 666.644L1304.63 664.244C1314.4 657.371 1325.74 649.52 1338.65 640.691L1341.17 639.168C1348.68 634.627 1355.86 630.353 1362.72 626.344C1362.59 626.125 1362.56 625.854 1362.64 625.595C1363.12 624.129 1363.57 623.144 1364.38 622.157C1366.92 619.069 1370.4 617.561 1372.86 619.5C1373.11 619.691 1373.23 619.978 1373.22 620.265L1375.41 619.013C1382.31 615.078 1388.83 611.444 1394.99 608.107L1392.59 607.421C1389.02 606.414 1384.58 605.221 1380.16 604.302C1380.2 607.25 1378 609.604 1374.34 611.224C1371.23 612.601 1367.17 613.341 1364.29 613.169C1358.9 612.847 1355.87 608.108 1358.64 603.203ZM1414.29 643.664C1416.57 649.893 1414.69 655.557 1409.01 655.52C1400.92 655.467 1393.01 648.385 1394.29 642.04C1394.86 639.21 1396.98 636.706 1400.67 635.457C1406.57 633.461 1411.98 637.323 1414.29 643.664ZM1401.27 637.222C1398.22 638.255 1396.55 640.219 1396.11 642.409C1395.1 647.445 1401.98 653.611 1409.02 653.657C1413.06 653.683 1414.44 649.497 1412.55 644.305C1410.54 638.81 1406.05 635.604 1401.27 637.222ZM1332.9 615.166L1332.97 615.262L1333.42 615.975C1333.64 616.338 1333.83 616.692 1334.02 617.076C1336.08 621.294 1336.02 626.825 1332.54 634.503C1330.96 637.98 1326.94 642.654 1323.43 645.444C1318.94 649.005 1315.59 649.814 1311.6 649.374L1310.41 649.235L1310.27 649.221C1310.19 649.216 1310.14 649.216 1310.08 649.217L1310 649.221C1309.94 649.223 1309.92 649.221 1309.91 649.213V649.206L1309.88 649.255C1309.61 649.642 1309.09 649.769 1308.67 649.535C1308.22 649.284 1308.06 648.718 1308.31 648.268C1308.64 647.665 1309.2 647.393 1309.91 647.36C1310.1 647.351 1310.3 647.357 1310.54 647.377L1310.81 647.404L1311.58 647.497C1315.22 647.939 1318.12 647.283 1322.27 643.984C1325.57 641.364 1329.41 636.908 1330.85 633.731C1334.11 626.547 1334.16 621.598 1332.35 617.894C1332.23 617.648 1332.1 617.413 1331.97 617.178L1331.77 616.852L1331.38 616.234C1331.11 615.799 1331.24 615.224 1331.67 614.95C1332.08 614.694 1332.61 614.794 1332.9 615.166ZM1443.14 612.768C1437.2 613.289 1427.88 616.231 1417.14 620.608L1417.45 620.886C1420.44 623.574 1426.47 629.947 1428.36 634.493L1430.24 632.403C1434.88 627.232 1438.25 623.348 1440.34 620.752L1440.76 620.221C1442.77 617.677 1444.06 615.551 1444.46 614.132L1444.51 613.917C1444.76 612.894 1444.47 612.651 1443.14 612.768ZM1354.11 615.794C1356.43 616.915 1357.37 619.412 1355.85 621.674C1355.56 622.101 1354.98 622.214 1354.55 621.926C1354.13 621.638 1354.02 621.059 1354.3 620.633C1355.14 619.388 1354.67 618.133 1353.3 617.472C1351.87 616.776 1350.3 617.177 1349.48 618.695C1348.74 620.094 1348.69 621.988 1349.28 623.229C1349.81 624.318 1350.57 624.527 1351.73 623.649C1352.14 623.339 1352.73 623.421 1353.04 623.833C1353.34 624.244 1353.26 624.828 1352.85 625.137C1350.73 626.738 1348.63 626.163 1347.61 624.039C1346.75 622.258 1346.82 619.736 1347.85 617.815C1349.16 615.365 1351.83 614.686 1354.11 615.794ZM1365.81 623.342C1365.38 623.869 1365.07 624.425 1364.78 625.139C1367.18 623.744 1369.53 622.381 1371.85 621.051L1371.78 621.012L1371.72 620.965C1370.3 619.849 1367.79 620.933 1365.81 623.342ZM1361.85 602.918L1361.03 602.975L1360.98 603.044C1357.77 607.114 1359 610.418 1363.39 610.887C1366.55 611.224 1374.91 608.88 1375.9 608.058C1376.85 607.256 1378.06 605.414 1378.25 603.921C1375.41 603.386 1372.63 602.993 1370.15 602.866C1367.62 602.737 1365.12 602.739 1362.66 602.87L1361.85 602.918Z" fill="#DADADA"/>
<path d="M1446.23 588.527C1466.04 581.252 1465.59 583.411 1446.88 590.282C1424.72 598.417 1341.09 649.388 1341.09 649.388C1303.13 672.349 1300.3 668.804 1337.09 646.462L1339.36 645.087C1339.78 644.829 1381.67 618.413 1411.6 604.279C1414.97 602.689 1443.97 589.356 1446.23 588.527Z" fill="white"/>
</svg>
